<svg width="111" height="48" viewBox="0 0 111 48" fill="none" xmlns="http://www.w3.org/2000/svg">
<g clip-path="url(#clip0_1825_13139)">
<path d="M37.5095 46.5974C37.5095 45.7682 38.0391 45.1948 38.9225 45.1948C39.6757 45.1948 40.0551 45.63 40.1504 46.0259L39.7838 46.0857C39.7087 45.7981 39.4301 45.503 38.9005 45.503C38.259 45.503 37.8723 45.9437 37.8723 46.603C37.8723 47.2305 38.2389 47.6937 38.9041 47.6937C39.5694 47.6937 39.8535 47.2231 39.8535 46.8757V46.8421H38.8968V46.5339H40.1797V47.9253H39.9121L39.8718 47.4771C39.7649 47.6505 39.6134 47.7908 39.4337 47.8827C39.2541 47.9746 39.0532 48.0145 38.8528 47.9981C38.0244 47.9981 37.5058 47.4192 37.5058 46.5955" fill="#4F2B1F"/>
<path d="M43.6416 47.6191V47.9273H41.6403V45.2715H43.616V45.5778H42.0014V46.4107H43.5537V46.7189H42.0014V47.6191H43.6416Z" fill="#4F2B1F"/>
<path d="M45.1096 45.2715H45.4707V47.6116H47.0083V47.9273H45.1096V45.2715Z" fill="#4F2B1F"/>
<path d="M50.0432 46.9318L49.6528 45.998C49.5784 45.8676 49.517 45.73 49.4695 45.5871C49.423 45.7303 49.3615 45.8681 49.2863 45.998L48.8977 46.9318H50.0432ZM50.1715 47.2381H48.7621L48.4726 47.9254H48.0932L49.2844 45.2715H49.651L50.8441 47.9254H50.461L50.1715 47.2381Z" fill="#4F2B1F"/>
<path d="M53.7324 45.5815H52.7354V47.9273H52.3762V45.5815H51.3774V45.2715H53.7324V45.5815Z" fill="#4F2B1F"/>
<path d="M56.9964 46.5974C56.9964 45.9288 56.595 45.503 55.9627 45.503C55.3305 45.503 54.9273 45.9288 54.9273 46.5974C54.9273 47.266 55.3286 47.6937 55.9627 47.6937C56.5969 47.6937 56.9964 47.2642 56.9964 46.5974ZM54.5498 46.5974C54.5498 45.7383 55.116 45.1948 55.9627 45.1948C56.8094 45.1948 57.3794 45.7383 57.3794 46.5974C57.3794 47.4565 56.8131 47.9981 55.9554 47.9981C55.0977 47.9981 54.5424 47.4378 54.5424 46.5955" fill="#4F2B1F"/>
<path d="M62.5146 46.0746C62.5146 45.7683 62.2855 45.5778 61.9263 45.5778H61.0906V46.5844H61.9226C62.2892 46.5844 62.5146 46.3883 62.5146 46.0746ZM62.894 46.0746C62.894 46.5714 62.5183 46.8907 61.9373 46.8907H61.0906V47.9254H60.7241V45.2715H61.9685C62.5311 45.2715 62.8848 45.5852 62.8848 46.0746" fill="#4F2B1F"/>
<path d="M64.4646 45.2715V46.8571C64.4746 47.0763 64.5672 47.2832 64.723 47.4347C64.8788 47.5862 65.0858 47.6707 65.3012 47.6707C65.5165 47.6707 65.7236 47.5862 65.8794 47.4347C66.0352 47.2832 66.1277 47.0763 66.1378 46.8571V45.2715H66.5044V46.8776C66.5044 47.5351 66.0737 47.9982 65.3058 47.9982C64.5379 47.9982 64.1053 47.5313 64.1053 46.8776V45.2715H64.4646Z" fill="#4F2B1F"/>
<path d="M68.3828 46.5321H69.2424C69.6731 46.5321 69.8105 46.2987 69.8105 46.0484C69.8105 45.7982 69.6731 45.5778 69.246 45.5778H68.3828V46.5321ZM69.1691 46.8347H68.3828V47.9273H68.0163V45.2715H69.2882C69.9883 45.2715 70.1825 45.6749 70.1825 46.0522C70.1858 46.231 70.1242 46.4047 70.0096 46.5402C69.8949 46.6756 69.7353 46.7632 69.5613 46.7861L70.276 47.9273H69.8527L69.1691 46.8347Z" fill="#4F2B1F"/>
<path d="M73.7801 46.5974C73.7801 45.9288 73.3787 45.503 72.7446 45.503C72.1105 45.503 71.711 45.9288 71.711 46.5974C71.711 47.266 72.1123 47.6937 72.7446 47.6937C73.3769 47.6937 73.7801 47.2642 73.7801 46.5974ZM71.3316 46.5974C71.3316 45.7383 71.8997 45.1948 72.7446 45.1948C73.5895 45.1948 74.1631 45.7383 74.1631 46.5974C74.1631 47.4565 73.595 48 72.7446 48C71.8942 48 71.3316 47.4397 71.3316 46.5974Z" fill="#4F2B1F"/>
<path d="M31.0951 46.7412H0V47.1147H31.0951V46.7412Z" fill="#4F2B1F"/>
<path d="M111 46.7412H80.3942V47.1147H111V46.7412Z" fill="#4F2B1F"/>
<path d="M2.21021 29.7905H2.84065C5.42473 29.7905 8.03264 31.0213 8.03264 33.7686C8.03264 35.5578 6.83406 37.6458 3.45093 37.6458H2.20471L2.21021 29.7905ZM6.23111 27.0582C6.23111 27.738 5.91956 29.318 3.04041 29.318H2.21021V25.0262H3.13755C4.98672 25.0262 6.23111 25.8405 6.23111 27.0582ZM5.31477 29.4749C5.79278 29.329 6.23164 29.0735 6.59765 28.7278C6.82389 28.5108 7.00318 28.2481 7.12405 27.9564C7.24491 27.6647 7.3047 27.3505 7.29957 27.0339C7.29957 25.7938 6.22561 24.5425 3.81747 24.5425H0.623108L0.711077 24.6209C1.13992 24.9944 1.17108 25.3119 1.17108 25.7807V36.8763C1.17108 37.388 1.12526 37.6682 0.711077 38.0342L0.623108 38.1127H3.9311C5.70513 38.1127 7.05582 37.6626 7.9465 36.7792C8.31681 36.3953 8.60732 35.9393 8.80067 35.4384C8.99402 34.9374 9.08622 34.4019 9.07177 33.8638C9.07177 33.2531 8.8885 30.2126 5.30927 29.4693" fill="#502C1D"/>
<path d="M11.9307 33.6641L14.1703 26.1674L16.199 33.6641H11.9307ZM17.744 35.4551L15.0481 25.5716C14.9638 25.2138 14.82 24.8733 14.6229 24.565L14.6101 24.55H13.4207L13.5105 24.6266C13.684 24.8124 13.8137 25.0359 13.8899 25.2803L10.7596 35.655C10.2923 37.192 9.97343 37.5768 9.4053 38.0399L9.31 38.1184H11.4157L11.4341 38.0343C10.7248 37.6982 10.9942 36.7886 11.2801 35.8268C11.3058 35.7372 11.3333 35.64 11.3589 35.5597L11.7658 34.1964H16.3475L16.9523 36.4076C17.2657 37.5469 17.1062 37.7878 16.6939 38.0362L16.5582 38.1184H19.1588L19.0654 38.0399C18.2993 37.3993 18.204 37.065 17.7495 35.4551" fill="#502C1D"/>
<path d="M30.615 35.9427C29.7463 36.9568 28.7694 37.8682 26.3851 37.8682C23.8084 37.8682 20.1815 35.6681 20.1815 30.7712C20.1815 28.2966 21.983 24.8116 25.9874 24.8116C27.8549 24.8116 29.5172 25.5231 30.4354 26.7147L30.4647 26.7502L30.7872 26.4719L30.7616 26.4383C30.3929 25.8818 30.115 25.2681 29.9387 24.6211L29.9185 24.5576L29.8709 24.5893L29.7646 24.664C29.6255 24.7902 29.4468 24.8618 29.2606 24.8657C29.0196 24.8408 28.7822 24.7876 28.5532 24.707C27.6837 24.4309 26.779 24.2868 25.8683 24.2793C24.0693 24.3091 22.3533 25.0561 21.0884 26.3601C19.8235 27.6641 19.1104 29.4213 19.1021 31.2549C19.1222 35.4459 22.0014 38.3725 26.1066 38.3725C26.9717 38.3591 27.8325 38.245 28.6723 38.0325C28.8569 37.9829 29.045 37.9479 29.2349 37.928C29.4642 37.9239 29.6867 38.0064 29.8599 38.1595L29.9112 38.2044L29.9314 38.1409C30.1784 37.438 30.5234 36.7751 30.9558 36.1724L30.9833 36.135L30.6351 35.9072L30.615 35.9427Z" fill="#502C1D"/>
<path d="M34.3628 24.6265L34.4562 24.5481H32.3157L32.4036 24.6265C32.8325 25.0001 32.8636 25.3176 32.8636 25.7863V36.8819C32.8636 37.3937 32.8178 37.6738 32.4036 38.0399L32.3157 38.1183H34.4544L34.361 38.0399C33.9211 37.6663 33.9009 37.3881 33.9009 36.8819V25.7863C33.9009 25.2933 33.9211 24.9963 34.361 24.6265" fill="#502C1D"/>
<path d="M42.7839 37.8269C41.2427 37.8269 39.7124 37.0967 38.5871 35.8211C37.4024 34.4521 36.7578 32.684 36.7782 30.8588C36.777 29.3423 37.326 27.8789 38.3195 26.75C39.4191 25.5173 40.9714 24.8655 42.7839 24.8655C46.1506 24.8655 48.8886 27.9919 48.8886 31.8337C48.8886 34.8219 46.792 37.8325 42.7839 37.8325V37.8269ZM47.7322 26.0477C46.4401 24.9421 44.6844 24.3333 42.7839 24.3333C40.0917 24.3333 38.435 25.6499 37.5205 26.7612C36.3952 28.1287 35.7725 29.8529 35.7593 31.6376C35.7593 36.0583 39.2927 38.3722 42.7839 38.3722C45.533 38.3722 47.208 37.0481 48.1354 35.9443C49.2674 34.5756 49.8943 32.8467 49.9076 31.0567C49.9076 29.0023 49.1543 27.2822 47.7285 26.0589" fill="#502C1D"/>
<path d="M58.7099 37.8066C57.3134 37.8066 56.135 36.3274 56.135 34.5774C56.135 32.9246 57.3226 31.5295 58.7282 31.5295C59.1059 31.5344 59.4786 31.6189 59.8227 31.7777C60.1668 31.9364 60.4749 32.1661 60.7277 32.4521V36.7476C60.4956 37.0719 60.1926 37.3366 59.8427 37.5207C59.4928 37.7049 59.1055 37.8034 58.7117 37.8084L58.7099 37.8066ZM61.6899 36.6617V25.7734C61.6899 25.1683 61.5469 24.7406 61.2409 24.4287L61.217 24.4026L60.2164 25.0451L60.275 25.0824C60.6562 25.3233 60.7295 25.6595 60.7295 26.1563V31.8582C60.1787 31.3726 59.4784 31.099 58.7502 31.085C56.5144 31.085 55.1765 33.0292 55.1765 34.908C55.1788 35.7506 55.4662 36.5666 55.9902 37.2183C56.2878 37.5811 56.6623 37.8704 57.0854 38.0645C57.5086 38.2586 57.9694 38.3524 58.4332 38.3389C59.2867 38.3331 60.1066 37.9996 60.7295 37.405V38.1185H62.1279L62.0711 38.0456C61.7467 37.6348 61.6844 37.2257 61.6844 36.6599" fill="#502C1D"/>
<path d="M63.9844 28.9015C64.0685 28.9061 64.1526 28.8933 64.2316 28.8637C64.3106 28.8341 64.3829 28.7885 64.444 28.7295C64.5051 28.6705 64.5538 28.5994 64.5871 28.5206C64.6204 28.4418 64.6375 28.3569 64.6375 28.2711C64.6375 28.1854 64.6204 28.1005 64.5871 28.0217C64.5538 27.9429 64.5051 27.8718 64.444 27.8128C64.3829 27.7538 64.3106 27.7081 64.2316 27.6786C64.1526 27.649 64.0685 27.6362 63.9844 27.6408C63.8262 27.6496 63.6773 27.7198 63.5683 27.8371C63.4593 27.9543 63.3986 28.1097 63.3986 28.2711C63.3986 28.4326 63.4593 28.588 63.5683 28.7052C63.6773 28.8225 63.8262 28.8927 63.9844 28.9015Z" fill="#502C1D"/>
<path d="M64.6038 36.6599V32.4969C64.6241 32.0037 64.456 31.5217 64.1347 31.1522L64.109 31.1279L63.1322 31.7499L63.1872 31.7872C63.5665 32.058 63.6435 32.4222 63.6435 32.8835V36.6636C63.6435 37.2332 63.5775 37.6422 63.2385 38.0494L63.1762 38.1222H65.0492L64.9887 38.0494C64.6625 37.6572 64.6038 37.2743 64.6038 36.6636" fill="#502C1D"/>
<path d="M77.889 36.6766L77.5903 36.3983L77.5628 36.4226C76.0966 37.6291 74.4051 37.6347 72.7758 37.6421H72.3378V25.7827C72.3378 25.2896 72.3579 24.9927 72.7978 24.6229L72.8913 24.5444H70.7415L70.8295 24.6229C71.2602 24.9964 71.2913 25.3139 71.2913 25.7827V36.8783C71.2913 37.39 71.2455 37.6702 70.8295 38.0362L70.7415 38.1147H74.3098C74.7368 38.1147 76.1736 38.1277 76.6923 38.3145L76.7271 38.3257L76.7454 38.2939C77.045 37.7198 77.4144 37.1864 77.845 36.7065L77.889 36.6766Z" fill="#502C1D"/>
<path d="M80.4547 33.6641L82.6961 26.1674L84.723 33.6641H80.4547ZM86.2698 35.4551L83.5703 25.5716C83.4869 25.2135 83.343 24.8729 83.1451 24.565L83.1323 24.55H81.9429L82.0327 24.6266C82.2061 24.8124 82.3359 25.0359 82.412 25.2803L79.2818 35.655C78.8145 37.192 78.4956 37.5768 77.9293 38.0399L77.8322 38.1184H79.9416L79.9599 38.0343C79.2506 37.6982 79.5201 36.7886 79.806 35.8268C79.8334 35.7372 79.8591 35.64 79.8848 35.5597L80.2916 34.1964H84.8733L85.4799 36.4076C85.7933 37.5469 85.6321 37.7878 85.2215 38.0362L85.0841 38.1184H87.6847L87.5912 38.0399C86.8251 37.3993 86.7298 37.065 86.2772 35.4551" fill="#502C1D"/>
<path d="M93.8645 25.0263C93.7398 24.7256 93.6409 24.4884 93.5767 24.3222L93.5621 24.283L93.5236 24.296C92.8693 24.5201 92.3195 24.5556 90.89 24.5556H89.2608C87.8349 24.5556 87.287 24.5201 86.629 24.296L86.5905 24.283L86.5759 24.3222C86.5117 24.4903 86.4091 24.7331 86.2827 25.0394C86.2057 25.2261 86.1195 25.4278 86.0243 25.6594L86.0078 25.7024L86.3743 25.835L86.3926 25.8069C86.8526 25.1047 87.8734 25.0151 88.711 25.0151C88.8942 25.0151 89.0537 25.0151 89.2149 25.0151H89.5503V36.8783C89.5503 37.3863 89.5302 37.6664 89.0903 38.0362L88.9969 38.1146H91.1393L91.0476 38.0362C90.6078 37.6627 90.5858 37.3844 90.5858 36.8783V25.0151H90.9212C91.0824 25.0151 91.2492 25.0151 91.427 25.0151C92.2645 25.0151 93.2853 25.1047 93.7435 25.8069L93.7637 25.835L94.1302 25.7024L94.1119 25.6594L93.8645 25.0263Z" fill="#502C1D"/>
<path d="M102.496 25.0263C102.372 24.7256 102.273 24.4884 102.209 24.3222L102.194 24.283L102.155 24.296C101.501 24.5201 100.951 24.5556 99.5237 24.5556H97.8927C96.4668 24.5556 95.9189 24.5201 95.2609 24.296L95.2224 24.283L95.2078 24.3222C95.1436 24.4903 95.0428 24.7331 94.9146 25.0394C94.8376 25.2261 94.7514 25.4278 94.658 25.6594L94.6396 25.7024L95.0062 25.835L95.0245 25.8069C95.4845 25.1047 96.5053 25.0151 97.3429 25.0151C97.5261 25.0151 97.6874 25.0151 97.8487 25.0151H98.184V36.8783C98.184 37.3863 98.1639 37.6664 97.724 38.0362L97.6324 38.1146H99.773L99.6813 38.0362C99.2415 37.6627 99.2214 37.3844 99.2214 36.8783V25.0263H99.5567C99.718 25.0263 99.8848 25.0263 100.063 25.0263C100.9 25.0263 101.921 25.1159 102.381 25.8182L102.399 25.8462L102.766 25.7136L102.749 25.6706C102.65 25.4353 102.566 25.2242 102.485 25.0394" fill="#502C1D"/>
<path d="M110.144 36.3982L110.115 36.4225C108.649 37.629 106.959 37.6346 105.328 37.642H104.89V29.7307H106.191C106.354 29.7307 107.809 29.7457 108.689 30.2705L108.753 30.3097V28.8156L108.691 28.8474C108.158 29.1256 107.316 29.2676 106.191 29.2676H104.89V25.0262H105.282C106.992 25.0374 108.469 25.0486 109.497 26.0422L109.525 26.0683L109.807 25.8349L108.707 24.4248H108.682C108.107 24.5073 107.527 24.5472 106.946 24.5443H103.299L103.387 24.6228C103.818 24.9963 103.849 25.3138 103.849 25.7826V36.8782C103.849 37.3899 103.803 37.6701 103.387 38.0361L103.299 38.1146H106.867C107.294 38.1146 108.729 38.1276 109.25 38.3144L109.285 38.3256L109.303 38.2938C109.602 37.7192 109.971 37.1858 110.403 36.7064L110.434 36.6727L110.144 36.3982Z" fill="#502C1D"/>
<path d="M57.0715 17.3559C55.9268 17.3685 54.7908 17.1504 53.729 16.7142C52.6672 16.278 51.7005 15.6322 50.8844 14.8141C50.0749 13.981 49.4359 12.9923 49.0046 11.9054C48.5732 10.8185 48.3581 9.65512 48.3718 8.48279C48.3497 6.26219 49.1599 4.11668 50.637 2.48396C51.3468 1.69961 52.2086 1.07389 53.1679 0.646332C54.1272 0.218778 55.1631 -0.00130208 56.2102 5.79516e-06C57.986 5.79516e-06 59.6171 0.618192 60.8065 1.74064C61.4164 2.32576 61.8997 3.03409 62.2257 3.82036C62.5516 4.60663 62.7131 5.45355 62.6997 6.307C62.6997 9.42221 60.6178 11.682 57.7514 11.682C56.8412 11.6883 55.9551 11.3832 55.2352 10.8155C54.8459 10.5005 54.5336 10.0976 54.3231 9.63871C54.1126 9.17979 54.0095 8.67733 54.0219 8.1709C54.0121 7.50987 54.2286 6.866 54.634 6.34996C54.9487 5.956 55.3812 5.67787 55.8656 5.55808C55.8878 5.55571 55.9101 5.56063 55.9293 5.57211C55.9486 5.58359 55.9637 5.60104 55.9725 5.6219C55.9813 5.64276 55.9833 5.66595 55.9783 5.68807C55.9732 5.71019 55.9614 5.73008 55.9444 5.74484C55.4496 6.07168 54.8118 6.76644 54.8118 8.15782C54.8118 9.93394 56.289 10.8622 57.7441 10.8622C60.1944 10.8622 61.9043 8.98332 61.9043 6.29393C61.9043 3.10588 59.5072 0.791882 56.2047 0.791882C55.2658 0.79088 54.337 0.988568 53.477 1.37242C52.617 1.75628 51.8446 2.31794 51.2088 3.02183C49.8688 4.5052 49.1347 6.45365 49.1562 8.46972C49.1418 9.53857 49.3366 10.5996 49.7293 11.5908C50.1221 12.582 50.7048 13.4835 51.4433 14.2426C52.9095 15.7367 54.9071 16.7732 57.0715 16.7732C58.9725 16.8167 60.8545 16.3797 62.5494 15.5014C62.5706 15.489 62.5957 15.4857 62.6192 15.4921C62.6427 15.4986 62.6628 15.5144 62.6749 15.5359C62.6871 15.5575 62.6904 15.583 62.684 15.607C62.6776 15.631 62.6622 15.6515 62.641 15.6638C60.9898 16.7773 59.0515 17.3662 57.0715 17.3559Z" fill="#502C1D"/>
</g>
<defs>
<clipPath id="clip0_1825_13139">
<rect width="111" height="48" fill="white"/>
</clipPath>
</defs>
</svg>
